<mxfile host="Electron" agent="Mozilla/5.0 (Windows NT 10.0; Win64; x64) AppleWebKit/537.36 (KHTML, like Gecko) draw.io/27.0.9 Chrome/134.0.6998.205 Electron/35.4.0 Safari/537.36" version="27.0.9">
  <diagram name="PÃ¡gina-1" id="b1Wxif6_eIVj07BW2aNk">
    <mxGraphModel dx="1111" dy="563" grid="1" gridSize="10" guides="1" tooltips="1" connect="1" arrows="1" fold="1" page="1" pageScale="1" pageWidth="827" pageHeight="1169" math="0" shadow="0">
      <root>
        <mxCell id="0" />
        <mxCell id="1" parent="0" />
        <mxCell id="Fd7HA7KJqV_3MCPD2Wui-2" value="App. java" style="html=1;whiteSpace=wrap;" vertex="1" parent="1">
          <mxGeometry x="359" y="80" width="110" height="50" as="geometry" />
        </mxCell>
        <mxCell id="Fd7HA7KJqV_3MCPD2Wui-21" value="" style="edgeStyle=orthogonalEdgeStyle;rounded=0;orthogonalLoop=1;jettySize=auto;html=1;" edge="1" parent="1" source="Fd7HA7KJqV_3MCPD2Wui-3" target="Fd7HA7KJqV_3MCPD2Wui-14">
          <mxGeometry relative="1" as="geometry" />
        </mxCell>
        <mxCell id="Fd7HA7KJqV_3MCPD2Wui-3" value="GestorClientes.java" style="html=1;whiteSpace=wrap;" vertex="1" parent="1">
          <mxGeometry x="359" y="280" width="110" height="50" as="geometry" />
        </mxCell>
        <mxCell id="Fd7HA7KJqV_3MCPD2Wui-5" value="Use" style="endArrow=open;endSize=12;dashed=1;html=1;rounded=0;exitX=0.5;exitY=1;exitDx=0;exitDy=0;" edge="1" parent="1" source="Fd7HA7KJqV_3MCPD2Wui-2" target="Fd7HA7KJqV_3MCPD2Wui-3">
          <mxGeometry width="160" relative="1" as="geometry">
            <mxPoint x="330" y="290" as="sourcePoint" />
            <mxPoint x="490" y="290" as="targetPoint" />
          </mxGeometry>
        </mxCell>
        <mxCell id="Fd7HA7KJqV_3MCPD2Wui-20" value="" style="edgeStyle=orthogonalEdgeStyle;rounded=0;orthogonalLoop=1;jettySize=auto;html=1;" edge="1" parent="1" source="Fd7HA7KJqV_3MCPD2Wui-6" target="Fd7HA7KJqV_3MCPD2Wui-13">
          <mxGeometry relative="1" as="geometry" />
        </mxCell>
        <mxCell id="Fd7HA7KJqV_3MCPD2Wui-6" value="GestorCitas.java" style="html=1;whiteSpace=wrap;" vertex="1" parent="1">
          <mxGeometry x="180" y="280" width="110" height="50" as="geometry" />
        </mxCell>
        <mxCell id="Fd7HA7KJqV_3MCPD2Wui-22" value="" style="edgeStyle=orthogonalEdgeStyle;rounded=0;orthogonalLoop=1;jettySize=auto;html=1;" edge="1" parent="1" source="Fd7HA7KJqV_3MCPD2Wui-7" target="Fd7HA7KJqV_3MCPD2Wui-15">
          <mxGeometry relative="1" as="geometry" />
        </mxCell>
        <mxCell id="Fd7HA7KJqV_3MCPD2Wui-7" value="GestorVeterinaros.java" style="html=1;whiteSpace=wrap;" vertex="1" parent="1">
          <mxGeometry x="560" y="280" width="110" height="50" as="geometry" />
        </mxCell>
        <mxCell id="Fd7HA7KJqV_3MCPD2Wui-19" value="" style="edgeStyle=orthogonalEdgeStyle;rounded=0;orthogonalLoop=1;jettySize=auto;html=1;" edge="1" parent="1" source="Fd7HA7KJqV_3MCPD2Wui-8" target="Fd7HA7KJqV_3MCPD2Wui-12">
          <mxGeometry relative="1" as="geometry" />
        </mxCell>
        <mxCell id="Fd7HA7KJqV_3MCPD2Wui-8" value="GestorMascotas.java" style="html=1;whiteSpace=wrap;" vertex="1" parent="1">
          <mxGeometry x="30" y="280" width="110" height="50" as="geometry" />
        </mxCell>
        <mxCell id="Fd7HA7KJqV_3MCPD2Wui-9" value="Use" style="endArrow=open;endSize=12;dashed=1;html=1;rounded=0;" edge="1" parent="1">
          <mxGeometry width="160" relative="1" as="geometry">
            <mxPoint x="420" y="130" as="sourcePoint" />
            <mxPoint x="100" y="270" as="targetPoint" />
          </mxGeometry>
        </mxCell>
        <mxCell id="Fd7HA7KJqV_3MCPD2Wui-10" value="Use" style="endArrow=open;endSize=12;dashed=1;html=1;rounded=0;exitX=0.445;exitY=1;exitDx=0;exitDy=0;entryX=0.6;entryY=-0.08;entryDx=0;entryDy=0;entryPerimeter=0;exitPerimeter=0;" edge="1" parent="1" source="Fd7HA7KJqV_3MCPD2Wui-2" target="Fd7HA7KJqV_3MCPD2Wui-7">
          <mxGeometry width="160" relative="1" as="geometry">
            <mxPoint x="410" y="170" as="sourcePoint" />
            <mxPoint x="410" y="320" as="targetPoint" />
          </mxGeometry>
        </mxCell>
        <mxCell id="Fd7HA7KJqV_3MCPD2Wui-11" value="Use" style="endArrow=open;endSize=12;dashed=1;html=1;rounded=0;entryX=0.682;entryY=0.02;entryDx=0;entryDy=0;entryPerimeter=0;" edge="1" parent="1" target="Fd7HA7KJqV_3MCPD2Wui-6">
          <mxGeometry width="160" relative="1" as="geometry">
            <mxPoint x="410" y="140" as="sourcePoint" />
            <mxPoint x="390" y="540" as="targetPoint" />
          </mxGeometry>
        </mxCell>
        <mxCell id="Fd7HA7KJqV_3MCPD2Wui-12" value="Mascotas.java" style="html=1;whiteSpace=wrap;" vertex="1" parent="1">
          <mxGeometry x="30" y="420" width="110" height="50" as="geometry" />
        </mxCell>
        <mxCell id="Fd7HA7KJqV_3MCPD2Wui-13" value="Citas.java" style="html=1;whiteSpace=wrap;" vertex="1" parent="1">
          <mxGeometry x="180" y="430" width="110" height="50" as="geometry" />
        </mxCell>
        <mxCell id="Fd7HA7KJqV_3MCPD2Wui-14" value="Clientes.java" style="html=1;whiteSpace=wrap;" vertex="1" parent="1">
          <mxGeometry x="359" y="420" width="110" height="50" as="geometry" />
        </mxCell>
        <mxCell id="Fd7HA7KJqV_3MCPD2Wui-15" value="Veterinario.java" style="html=1;whiteSpace=wrap;" vertex="1" parent="1">
          <mxGeometry x="560" y="430" width="110" height="50" as="geometry" />
        </mxCell>
      </root>
    </mxGraphModel>
  </diagram>
</mxfile>
